<?xml version="1.0" standalone="no"?>
<!DOCTYPE svg PUBLIC "-//W3C//DTD SVG 20010904//EN"
 "http://www.w3.org/TR/2001/REC-SVG-20010904/DTD/svg10.dtd">
<svg version="1.0" xmlns="http://www.w3.org/2000/svg"
 width="500.000000pt" height="500.000000pt" viewBox="0 0 500.000000 500.000000"
 preserveAspectRatio="xMidYMid meet">
<metadata>
Created by potrace 1.14, written by Peter Selinger 2001-2017
</metadata>
<g transform="translate(0.000000,500.000000) scale(0.100000,-0.100000)"
fill="#000000" stroke="none">
<path d="M2498 4075 c-2 -1 -39 -5 -83 -9 -146 -12 -172 -16 -262 -45 -123
-40 -158 -57 -217 -101 -148 -110 -191 -191 -191 -360 0 -181 44 -258 275
-489 154 -155 231 -260 246 -336 14 -73 54 -196 85 -260 100 -204 307 -323
522 -301 77 9 120 27 162 71 56 57 70 91 69 175 0 68 -5 85 -48 182 -27 61
-65 127 -87 152 -65 73 -196 124 -311 120 -73 -2 -106 -10 -145 -37 -25 -17
-33 -29 -33 -53 0 -54 21 -62 146 -58 128 4 172 -8 229 -63 31 -30 75 -100 75
-118 0 -20 -156 23 -242 66 -71 36 -93 36 -115 3 -15 -23 -15 -29 -2 -52 39
-70 175 -132 322 -148 65 -7 74 -16 51 -48 -58 -79 -244 -72 -367 15 -76 53
-157 206 -171 324 -3 22 -8 65 -11 95 -7 62 -34 128 -70 176 -14 18 -25 36
-25 41 0 4 7 -3 16 -15 9 -14 22 -21 31 -18 8 3 12 2 9 -3 -8 -13 40 -20 120
-17 71 3 184 39 274 89 179 100 231 119 353 132 124 13 237 64 301 135 49 56
96 161 103 231 3 35 7 66 9 67 16 19 199 -190 245 -280 29 -58 69 -187 69
-223 -1 -18 -2 -19 -14 -3 -22 30 -113 68 -174 74 -48 5 -97 -2 -247 -36 -104
-23 -208 -51 -232 -62 -76 -36 -124 -111 -125 -197 0 -49 13 -85 85 -247 102
-226 82 -377 -65 -497 -74 -60 -161 -80 -283 -63 -158 21 -264 88 -387 243
-18 23 -69 88 -113 144 -150 192 -253 314 -297 354 -138 128 -294 186 -503
187 -92 1 -122 -3 -182 -24 -40 -13 -73 -21 -73 -17 0 20 75 199 114 274 73
139 106 181 280 362 110 113 125 143 86 178 -21 19 -62 15 -84 -8 -7 -7 -45
-41 -85 -77 -118 -104 -134 -121 -197 -200 -115 -144 -160 -221 -219 -380 -60
-161 -95 -332 -96 -475 -1 -105 7 -147 42 -221 55 -118 141 -191 254 -217 113
-25 190 -2 431 132 50 27 125 60 167 72 70 21 84 22 154 12 86 -13 74 -3 183
-143 102 -131 196 -221 267 -255 34 -16 63 -33 63 -36 0 -4 -13 -12 -28 -18
-15 -7 -53 -36 -83 -66 l-56 -55 -13 58 c-25 112 -96 232 -173 290 -65 49 -80
54 -106 36 -32 -23 -26 -44 27 -94 59 -57 117 -174 141 -284 24 -112 20 -159
-18 -236 -31 -63 -75 -192 -85 -246 -15 -82 -19 -131 -22 -239 -2 -146 0 -134
-21 -133 -32 1 -317 -13 -343 -17 -14 -2 -61 -7 -105 -10 -44 -3 -97 -8 -117
-11 -21 -2 -57 -6 -80 -9 -24 -3 -59 -7 -78 -10 -19 -3 -54 -8 -77 -10 -41 -4
-83 -23 -83 -37 0 -12 119 -45 190 -53 75 -9 90 -10 225 -19 55 -4 111 -9 125
-11 170 -26 1385 -26 1516 -1 12 2 68 7 125 11 323 20 473 55 401 94 -10 5
-38 12 -62 16 -25 3 -70 10 -100 15 -30 5 -84 12 -120 15 -36 3 -81 8 -100 10
-19 2 -80 7 -135 10 -55 3 -131 8 -170 10 -293 18 -761 24 -804 10 l-24 -7 5
153 c5 140 9 164 42 271 95 309 253 467 494 493 138 16 261 65 327 133 48 50
112 153 126 206 18 65 19 156 5 226 -12 58 -69 208 -126 335 -30 66 -32 87
-12 120 26 41 49 51 187 79 66 13 140 30 165 36 141 37 305 -57 278 -159 -32
-119 -134 -217 -256 -245 -75 -17 -68 -16 -90 -16 -31 0 -62 -37 -62 -75 0
-25 7 -39 28 -55 23 -19 35 -21 90 -16 127 11 263 77 339 166 43 50 92 141
109 202 18 66 24 203 13 283 -17 126 -93 305 -171 407 -43 56 -160 165 -222
207 -12 8 -23 18 -26 21 -9 10 -113 77 -150 95 -19 10 -55 32 -80 50 -77 54
-184 100 -280 119 -14 3 -34 7 -46 10 -22 4 -82 12 -169 22 -49 6 -342 13
-347 9z m598 -194 c106 -34 136 -52 196 -111 32 -32 58 -62 57 -67 -1 -4 3
-21 10 -38 16 -38 9 -130 -14 -178 -37 -79 -135 -149 -211 -151 -23 0 -40 -4
-37 -9 2 -4 -6 -6 -18 -4 -13 2 -25 10 -27 17 -3 7 0 10 7 6 6 -4 11 -1 11 8
0 8 -7 19 -16 24 -29 16 -104 94 -98 103 3 5 0 9 -5 9 -6 0 -25 28 -42 63 -48
98 -108 168 -176 202 -51 26 -68 30 -143 30 -68 0 -93 -5 -127 -23 -86 -45
-139 -120 -150 -209 -5 -45 -3 -52 18 -67 13 -9 29 -16 37 -16 20 0 70 -52 77
-81 9 -37 -29 -80 -73 -81 -78 -2 -242 185 -242 278 0 18 11 59 26 91 53 122
195 181 447 188 191 4 300 -34 362 -128 14 -22 15 -32 6 -55 -18 -44 -17 -84
3 -133 64 -157 294 -111 299 60 1 63 -37 130 -90 157 -33 16 -165 134 -151
134 3 0 32 -9 64 -19z m-1024 -98 c-29 -42 -54 -93 -60 -127 -13 -60 -6 -172
12 -207 28 -57 39 -71 108 -143 57 -59 77 -73 133 -91 79 -27 128 -24 201 9
62 29 105 91 112 165 6 62 -32 139 -88 180 -37 26 -38 29 -22 44 38 34 141 44
202 19 23 -10 57 -39 87 -75 6 -8 32 -55 57 -103 25 -49 56 -106 69 -128 l24
-39 -161 -79 c-192 -96 -220 -106 -301 -114 -56 -6 -84 -2 -237 31 -38 8 -80
39 -154 112 -69 68 -118 127 -119 143 -1 3 -9 19 -18 37 -9 17 -20 49 -23 70
-3 21 -6 40 -7 43 -1 3 2 28 6 56 7 50 42 116 88 165 23 25 100 71 108 64 2
-2 -6 -16 -17 -32z m1086 -100 c19 -28 18 -50 -5 -87 -17 -29 -80 -27 -104 3
-25 31 -24 59 3 88 31 33 81 31 106 -4z m-1503 -837 c125 -35 198 -83 299
-198 35 -40 64 -74 63 -74 -1 -1 -30 -4 -64 -8 -95 -10 -101 -13 -337 -144
-156 -87 -226 -100 -314 -56 -92 46 -144 139 -144 254 1 129 52 197 177 236
54 17 243 11 320 -10z"/>
<path d="M2257 3723 c-13 -12 -7 -41 9 -47 22 -9 34 1 34 30 0 17 -6 24 -18
24 -10 0 -22 -3 -25 -7z"/>
<path d="M2626 3548 c-22 -12 -20 -55 3 -68 15 -7 24 -5 41 8 40 32 1 85 -44
60z"/>
<path d="M2652 3375 c-21 -26 -21 -33 -8 -72 14 -44 98 -42 118 2 15 33 3 69
-27 83 -39 18 -62 14 -83 -13z"/>
<path d="M1535 2782 c-11 -2 -22 -7 -25 -11 -3 -3 -14 -11 -25 -17 -29 -16
-63 -81 -60 -118 5 -76 65 -136 138 -138 109 -2 184 99 144 194 -26 62 -108
105 -172 90z"/>
<path d="M1273 2687 c-34 -15 -33 -74 1 -83 33 -8 66 12 66 39 0 42 -30 61
-67 44z"/>
<path d="M1310 2538 c-39 -43 -15 -108 41 -108 32 0 46 10 58 43 25 64 -52
115 -99 65z"/>
<path d="M1550 3437 c-14 -5 -35 -24 -47 -42 -18 -27 -21 -43 -17 -99 5 -71
-4 -100 -40 -128 -24 -20 -20 -21 54 -19 102 3 218 129 196 215 -16 63 -84 97
-146 73z"/>
<path d="M3633 3362 c-22 -15 -33 -49 -20 -64 32 -40 81 -22 75 26 -3 29 -35
51 -55 38z"/>
<path d="M3482 3291 c-20 -12 -10 -46 14 -49 27 -4 39 24 20 44 -17 16 -17 16
-34 5z"/>
<path d="M1747 3234 c-14 -14 -7 -35 11 -32 9 2 17 10 17 17 0 16 -18 25 -28
15z"/>
<path d="M1766 3118 c-29 -41 22 -92 54 -54 17 22 8 58 -17 67 -17 6 -26 3
-37 -13z"/>
<path d="M2922 3058 c-22 -22 -14 -57 13 -64 47 -12 77 44 36 66 -25 13 -34
13 -49 -2z"/>
<path d="M2006 2982 c-3 -5 -2 -19 1 -31 4 -15 12 -21 27 -19 30 4 30 52 -1
56 -11 2 -24 -1 -27 -6z"/>
<path d="M2791 2976 c-9 -11 -8 -18 5 -31 15 -15 19 -15 32 -1 17 17 10 46
-11 46 -8 0 -20 -6 -26 -14z"/>
<path d="M2917 2932 c-23 -5 -18 -36 6 -40 19 -4 35 25 21 37 -5 4 -17 6 -27
3z"/>
<path d="M3501 2926 c-10 -12 -8 -17 7 -25 22 -12 32 -6 32 21 0 21 -23 24
-39 4z"/>
<path d="M3659 2933 c-17 -4 -39 -43 -39 -68 0 -21 41 -55 66 -55 56 0 79 76
34 112 -22 18 -31 20 -61 11z"/>
<path d="M3347 2874 c-78 -42 -58 -163 30 -180 72 -14 131 43 119 114 -11 68
-85 101 -149 66z"/>
<path d="M2145 2806 c-21 -15 -17 -55 8 -70 25 -16 52 4 52 39 0 33 -33 51
-60 31z"/>
<path d="M3573 2783 c-9 -3 -10 -10 -3 -24 14 -25 36 -24 43 0 7 29 -7 38 -40
24z"/>
<path d="M1951 2331 c-15 -28 9 -56 42 -48 17 5 24 13 22 24 -2 10 -4 24 -4
31 -1 19 -49 14 -60 -7z"/>
<path d="M1111 2239 c-28 -26 -26 -43 23 -195 51 -155 156 -331 239 -399 17
-14 40 -33 50 -41 9 -8 24 -14 32 -14 8 0 15 -4 15 -9 0 -19 118 -128 160
-148 102 -47 233 -46 337 3 62 29 162 123 191 179 30 60 46 155 39 242 -16
217 -203 383 -420 372 -89 -4 -165 -37 -227 -99 -84 -83 -127 -184 -136 -320
-2 -45 -2 -44 -17 -28 -57 60 -190 350 -190 415 0 18 -43 63 -60 63 -7 0 -24
-10 -36 -21z m804 -175 c92 -45 148 -146 144 -262 -4 -119 -75 -219 -177 -248
-58 -17 -62 -18 -120 -15 -36 1 -36 21 0 21 56 0 155 77 193 149 51 100 11
241 -78 270 -124 40 -229 -16 -231 -125 0 -52 24 -89 77 -119 20 -12 33 -25
29 -31 -12 -19 -50 -34 -84 -34 -72 1 -108 64 -104 181 4 86 20 123 76 178 73
70 176 84 275 35z m-62 -216 c33 -39 1 -97 -52 -98 -57 0 -80 64 -39 107 26
28 63 24 91 -9z"/>
<path d="M1338 2099 c-27 -15 -24 -66 5 -75 40 -14 67 1 67 38 0 19 -26 48
-43 48 -7 0 -20 -5 -29 -11z"/>
<path d="M1986 1375 c-27 -20 -14 -65 19 -65 25 0 51 32 40 50 -13 22 -40 28
-59 15z"/>
</g>
</svg>
